<svg width="640" height="140" xmlns="http://www.w3.org/2000/svg"><g class="layer"><path d="M423.759 31.863c-16.667 0-30.165 11.411-30.165 25.5 0 14.08 13.498 25.496 30.165 25.496 16.65 0 30.157-11.417 30.157-25.496.003-14.089-13.498-25.5-30.157-25.5zm0 44.522c-12.43-.026-22.476-8.518-22.506-19.019.027-10.503 10.076-18.999 22.506-19.025 12.421.026 22.467 8.522 22.494 19.025-.027 10.5-10.073 18.993-22.494 19.019zm0-46.228c2.118 0 3.831-1.451 3.831-3.243V11.203c-.008-1.791-1.716-3.24-3.831-3.24-2.12 0-3.836 1.455-3.832 3.246v15.709c0 1.784 1.713 3.239 3.832 3.239zm12.31 2.066c.479.172.977.246 1.464.25 1.51 0 2.93-.755 3.544-2.002l7.11-14.52c.805-1.655-.118-3.547-2.072-4.23-1.958-.683-4.2.1-5.012 1.752l-7.107 14.523c-.808 1.652.119 3.547 2.073 4.227zm10.44 5.898c.748.628 1.728.949 2.71.949s1.961-.317 2.708-.949l13.142-11.12c1.498-1.262 1.494-3.312 0-4.582-1.502-1.263-3.927-1.263-5.422.006L446.51 33.538c-1.499 1.266-1.499 3.317 0 4.583zm6.985 8.823c.606 1.247 2.035 1.998 3.537 1.998.486 0 .984-.08 1.467-.253l17.165-6.014c1.958-.684 2.885-2.582 2.073-4.233s-3.05-2.436-5.008-1.75l-17.169 6.015c-1.954.687-2.877 2.585-2.065 4.237zm24.862 7.16l-18.586.004c-2.115 0-3.831 1.451-3.824 3.242 0 1.791 1.713 3.236 3.824 3.236l18.59-.007c2.119 0 3.828-1.454 3.828-3.239 0-1.79-1.717-3.242-3.832-3.235zm-2.674 17.905l-17.172-6.005c-1.962-.686-4.204.098-5.008 1.753-.809 1.655.119 3.55 2.073 4.236l17.172 6.005c.483.165.98.243 1.468.243 1.505 0 2.93-.752 3.544-1.999.804-1.655-.127-3.553-2.077-4.233zm-23.732 4.577c-1.498-1.267-3.92-1.267-5.417.003-1.499 1.263-1.495 3.31 0 4.577l13.157 11.106c.747.631 1.724.949 2.705.949s1.965-.318 2.712-.95c1.498-1.269 1.49-3.32 0-4.582L451.95 76.586zm-10.847 7.653c-.808-1.655-3.05-2.435-5.007-1.752-1.954.687-2.881 2.581-2.07 4.236l7.127 14.51c.61 1.248 2.035 1.999 3.544 1.999.49 0 .989-.078 1.468-.246 1.958-.684 2.88-2.582 2.069-4.24l-7.13-14.507zm-17.306.334c-2.119 0-3.832 1.45-3.832 3.239l.016 15.711c0 1.792 1.72 3.236 3.831 3.236 2.119 0 3.832-1.45 3.824-3.239l-.012-15.715c0-1.781-1.72-3.235-3.827-3.232zm-12.322-2.06c-1.954-.68-4.192.1-5.004 1.759l-7.096 14.52c-.804 1.655.127 3.55 2.08 4.233.48.168.974.246 1.464.246 1.502 0 2.932-.758 3.54-2.005l7.1-14.526c.809-1.652-.126-3.544-2.084-4.227zm-10.444-5.885c-1.502-1.267-3.928-1.26-5.422.006l-13.126 11.12c-1.498 1.269-1.49 3.313.007 4.582.747.629 1.724.946 2.705.946.985 0 1.966-.317 2.713-.949l13.13-11.122c1.49-1.267 1.49-3.317-.007-4.583zm-6.989-8.813c-.816-1.649-3.054-2.432-5.008-1.75l-17.16 6.028c-1.958.687-2.882 2.585-2.07 4.237.614 1.247 2.035 1.995 3.54 1.995a4.44 4.44 0 001.468-.246l17.161-6.028c1.95-.693 2.878-2.587 2.07-4.236zm-2.475-10.403c0-1.791-1.713-3.236-3.831-3.236l-18.587.02c-2.118 0-3.835 1.45-3.827 3.242.004 1.784 1.72 3.238 3.831 3.232l18.59-.02c2.115 0 3.832-1.457 3.824-3.238zm-19.755-14.65l17.184 5.992c.479.172.973.246 1.46.246 1.506 0 2.935-.751 3.544-2.001.812-1.655-.123-3.553-2.084-4.23l-17.177-5.992c-1.957-.68-4.195.103-5.003 1.755-.813 1.655.126 3.544 2.076 4.23zm23.728-4.592c.747.625 1.72.942 2.701.942s1.966-.317 2.717-.955c1.498-1.26 1.49-3.314-.016-4.58l-13.157-11.09c-1.494-1.263-3.927-1.257-5.417.01-1.498 1.263-1.49 3.316.007 4.58L395.54 38.17zm10.832-7.667c.613 1.244 2.038 1.992 3.536 1.992.49 0 .988-.08 1.471-.25 1.954-.686 2.885-2.584 2.07-4.233l-7.143-14.506c-.812-1.652-3.057-2.433-5.011-1.746-1.954.69-2.877 2.588-2.065 4.236l7.142 14.507z" fill="#ff0" id="svg_13" stroke="#ff0" stroke-width="0"/><ellipse cx="82.102" cy="57.759" fill="#bf5f00" id="svg_7" rx="72.633" ry="52.446" stroke="#000" stroke-width="5"/><ellipse cx="82.301" cy="55.06" fill="#bf5f00" id="svg_8" rx="46.831" ry="33.964" stroke="#000" stroke-width="5"/><ellipse cx="82.096" cy="54.367" fill="#bf5f00" id="svg_10" rx="27.651" ry="16.476" stroke="#000" stroke-width="5"/><text fill="red" font-family="Serif" font-size="2" font-weight="bold" id="svg_12" stroke="red" stroke-width="0" text-anchor="middle" transform="matrix(14.5834 0 0 19.374 -5245.4 -1805.37)" x="386.889" xml:space="preserve" y="96.818">GASTRONOMÍA DE MALLORCA</text><ellipse cx="82.59" cy="54.337" fill="#bf5f00" id="svg_15" rx="9.94" ry="7.831" stroke="#000" stroke-width="5"/></g></svg>